:version 1.10
:name ASF
:units
  mass 1
  length 1
  angle deg
:documentation
  ASF file generated by Kaydara
:root
  axis xyz
  order  tx ty tz rx ry rz
  position 0 0 0
  orientation 0 0 0
:bonedata
  begin
    id 1
    name SpineDummy
    direction 0.999998 -0.00179978 1.38929e-006
    length 3.60008
    axis 0 0 0 xyz
  end
  begin
    id 2
    name Spine
    direction 0.964365 0.262802 0.0305839
    length 8.13928
    axis 1.33928 -1.75354 15.2838 xyz
    dof rx ry rz
  end
  begin
    id 3
    name Spine1
    direction 0.811168 0.572065 0.12144
    length 7.14954
    axis 2.2224 -6.9761 35.2157 xyz
    dof rx ry rz
  end
  begin
    id 4
    name Neck
    direction 0 0 0
    length 0
    axis 2.2224 -6.9761 35.2157 xyz
    dof rx ry rz
  end
  begin
    id 5
    name HeadDummy
    direction 0.810939 0.572387 0.121455
    length 3.55534
    axis 2.2224 -6.9761 35.2157 xyz
  end
  begin
    id 6
    name Head
    direction 0.998226 -0.000232542 0.0595419
    length 7.35666
    axis -3.03688 -3.41352 -0.0133467 xyz
    dof rx ry rz
  end
  begin
    id 7
    name R_ClavicleDummy
    direction 0.531669 -0.194489 -0.824319
    length 2.49392
    axis 2.2224 -6.9761 35.2157 xyz
  end
  begin
    id 8
    name R_Clavicle
    direction -0.155119 0.0480802 -0.986725
    length 4.485
    axis -54.2764 80.6538 162.779 xyz
    dof rx ry rz
  end
  begin
    id 9
    name R_UpperArm
    direction -0.955567 0.200068 -0.216484
    length 10.1122
    axis -72.9943 12.5026 168.175 xyz
    dof rx ry rz
  end
  begin
    id 10
    name R_Forearm
    direction -0.61433 0.385743 0.688332
    length 9.39148
    axis -117.015 -43.4982 147.875 xyz
    dof rx ry rz
  end
  begin
    id 11
    name R_Hand
    direction -0.699429 0.0170333 0.714499
    length 3.66324
    axis -45.0303 -36.7097 175.478 xyz
    dof rx ry rz
  end
  begin
    id 12
    name L_ClavicleDummy
    direction 0.40287 -0.36502 0.839319
    length 2.49392
    axis 2.2224 -6.9761 35.2157 xyz
  end
  begin
    id 13
    name L_Clavicle
    direction -0.231271 -0.0726419 0.970174
    length 4.485
    axis 18.4357 -75.9711 -162.563 xyz
    dof rx ry rz
  end
  begin
    id 14
    name L_UpperArm
    direction -0.917494 0.144359 0.370629
    length 10.1122
    axis 56.0417 -21.7544 171.058 xyz
    dof rx ry rz
  end
  begin
    id 15
    name L_Forearm
    direction -0.496786 0.615074 -0.612281
    length 9.39148
    axis 89.8094 37.7546 128.927 xyz
    dof rx ry rz
  end
  begin
    id 16
    name L_Hand
    direction -0.409932 0.64962 -0.640274
    length 3.66324
    axis -0.424369 32.133 128.52 xyz
    dof rx ry rz
  end
  begin
    id 17
    name L_ThighDummy
    direction -1.84081e-006 1.87549e-006 1
    length 3.13049
    axis 0 0 0 xyz
  end
  begin
    id 18
    name L_Thigh
    direction -0.947739 0.307978 0.083308
    length 17.9961
    axis 173.219 -4.77873 161.998 xyz
    dof rx ry rz
  end
  begin
    id 19
    name L_Calf
    direction -0.728814 -0.684427 0.0197583
    length 13.3367
    axis 167.331 -1.13214 -136.799 xyz
    dof rx ry rz
  end
  begin
    id 20
    name L_Foot
    direction -0.9028 0.418719 0.0981191
    length 5.8674
    axis 163.436 11.5135 -155.37 xyz
    dof rx ry rz
  end
  begin
    id 21
    name L_Toe0
    direction -0.35341 0.886259 0.299411
    length 4.75286
    axis 169.316 -17.4222 111.74 xyz
    dof rx ry rz
  end
  begin
    id 22
    name R_ThighDummy
    direction 9.32778e-007 -8.82053e-007 -1
    length 3.13049
    axis 0 0 0 xyz
  end
  begin
    id 23
    name R_Thigh
    direction -0.925064 0.37528 -0.0585023
    length 17.9961
    axis -178.698 3.35385 157.919 xyz
    dof rx ry rz
  end
  begin
    id 24
    name R_Calf
    direction -0.68969 -0.718776 -0.0876886
    length 13.3367
    axis -160.504 5.03065 -133.817 xyz
    dof rx ry rz
  end
  begin
    id 25
    name R_Foot
    direction -0.857405 0.418858 -0.299022
    length 5.8674
    axis -161.328 4.38911 -154.413 xyz
    dof rx ry rz
  end
  begin
    id 26
    name R_Toe0
    direction -0.100745 0.952789 -0.286433
    length 4.75286
    axis 171.683 16.6445 96.0359 xyz
    dof rx ry rz
  end
:hierarchy
  begin
    root SpineDummy L_ThighDummy R_ThighDummy
    SpineDummy Spine
    Spine Spine1
    Spine1 Neck
    Neck HeadDummy R_ClavicleDummy L_ClavicleDummy
    HeadDummy Head
    R_ClavicleDummy R_Clavicle
    R_Clavicle R_UpperArm
    R_UpperArm R_Forearm
    R_Forearm R_Hand
    L_ClavicleDummy L_Clavicle
    L_Clavicle L_UpperArm
    L_UpperArm L_Forearm
    L_Forearm L_Hand
    L_ThighDummy L_Thigh
    L_Thigh L_Calf
    L_Calf L_Foot
    L_Foot L_Toe0
    R_ThighDummy R_Thigh
    R_Thigh R_Calf
    R_Calf R_Foot
    R_Foot R_Toe0
  end

:SAMPLES-PER-SECOND 30
:FULLY-SPECIFIED
:DEGREES
221
root  -4.7309 28.4394 34.1923 -123.731 -18.6406 73.9453
Spine  8.18194 11.5593 8.18371
Spine1  6.5829 -24.1441 -0.598858
Neck  3.97569e-016 0 -2.38542e-015
Head  12.8763 -15.4922 25.2226
R_Clavicle  0.355939 -6.32488 1.68485
R_UpperArm  8.46372 15.5767 -2.13136
R_Forearm  18.6204 -11.5926 9.78586
R_Hand  -0.375784 6.7077 -13.4309
L_Clavicle  -0.425117 15.1874 -0.524814
L_UpperArm  -25.3169 9.16503 38.352
L_Forearm  13.0592 39.2726 46.2063
L_Hand  0.088805 0.885552 1.58774
L_Thigh  -22.2302 -21.2094 19.6438
L_Calf  21.1154 -1.40528 12.0303
L_Foot  -2.82474 -5.33878 -9.94773
L_Toe0  0.460392 0.0364961 -6.23153
R_Thigh  26.3489 -4.50805 4.6626
R_Calf  7.14211 -6.06477 -19.2406
R_Foot  0.140462 0.397589 -0.141894
R_Toe0  -11.8174 1.74957 -7.68995
222
root  -5.27043 29.325 35.3421 -116.782 -16.9818 70.5267
Spine  5.31867 10.1647 6.78979
Spine1  4.2405 -20.5004 -0.940288
Neck  3.97569e-016 0 -2.38542e-015
Head  12.1713 -16.8302 21.4218
R_Clavicle  0.251443 -9.40275 0.675183
R_UpperArm  3.3268 12.4608 7.84229
R_Forearm  20.8054 -16.9626 14.7761
R_Hand  -0.351604 6.82902 -13.2922
L_Clavicle  -0.417549 15.1253 -1.18796
L_UpperArm  -22.1742 9.05659 29.4061
L_Forearm  8.74488 36.4507 41.6231
L_Hand  -0.0245729 3.11225 -0.18746
L_Thigh  -21.7783 -17.994 16.0782
L_Calf  28.6024 -4.90757 25.0807
L_Foot  -5.92694 -23.0133 -10.0822
L_Toe0  0.504879 0.0344482 -6.13634
R_Thigh  14.8345 -5.25699 5.81478
R_Calf  16.0579 -5.7515 -18.2357
R_Foot  -0.217966 -1.02474 -0.624258
R_Toe0  -3.57728 0.169422 -8.54937
223
root  -5.52401 29.6887 36.3842 -112.11 -15.2021 68.2443
Spine  2.51339 7.66302 5.41989
Spine1  1.79101 -16.8004 -0.931626
Neck  3.97569e-016 0 -2.38542e-015
Head  13.6793 -17.64 14.2745
R_Clavicle  0.21384 -12.9789 -0.318255
R_UpperArm  -1.50127 10.7866 15.8938
R_Forearm  27.2297 -23.4431 19.8022
R_Hand  -0.469332 7.30021 -14.5153
L_Clavicle  -0.443622 15.773 -1.24545
L_UpperArm  -16.3967 7.06645 22.4874
L_Forearm  1.16024 30.0634 36.7934
L_Hand  -0.171879 5.71365 -1.56682
L_Thigh  -5.6196 -13.8116 14.8511
L_Calf  11.4737 -11.7941 32.1525
L_Foot  -5.32198 -20.5215 -2.04751
L_Toe0  0.503964 0.0344554 -6.13715
R_Thigh  5.16084 -5.38525 4.72474
R_Calf  19.5806 -5.0441 -15.9286
R_Foot  -0.19574 -1.14416 -0.96842
R_Toe0  4.23679 -1.1886 -1.51817
224
root  -5.66024 29.4696 37.2957 -109.428 -13.5455 67.3394
Spine  0.109874 5.33406 4.73249
Spine1  -0.605575 -14.0311 0.100027
Neck  3.97569e-016 0 -2.38542e-015
Head  16.589 -16.2776 4.08048
R_Clavicle  0.248523 -16.5358 -1.16741
R_UpperArm  4.42809 9.26019 23.6394
R_Forearm  32.9832 -27.3362 20.2358
R_Hand  -0.754234 7.94203 -16.9803
L_Clavicle  -0.480772 16.7315 -1.03497
L_UpperArm  -15.5679 1.71421 16.8578
L_Forearm  -2.44601 23.2441 30.151
L_Hand  -0.450252 6.52699 -4.01841
L_Thigh  -5.25621 -6.89224 15.4309
L_Calf  5.84804 -7.1885 29.4199
L_Foot  -2.4229 -9.62006 0.43945
L_Toe0  0.503333 0.0344604 -6.13771
R_Thigh  1.32186 -5.04055 2.75887
R_Calf  17.6031 -3.94793 -12.3867
R_Foot  -0.64547 0.340097 6.5014
R_Toe0  3.64701 -1.29923 3.16645
225
root  -5.78468 29.0351 38.1154 -108.77 -12.4983 67.6151
Spine  -1.36903 4.07013 5.36223
Spine1  -2.18109 -13.5523 1.17597
Neck  3.97569e-016 0 -2.38542e-015
Head  19.093 -12.0535 -6.03523
R_Clavicle  0.340966 -19.6878 -1.32967
R_UpperArm  9.05426 5.59464 32.8089
R_Forearm  42.7092 -19.2366 17.2059
R_Hand  -1.00811 7.64286 -18.9121
L_Clavicle  -0.471836 16.5426 -0.69798
L_UpperArm  -18.641 -5.79771 11.1829
L_Forearm  -1.72969 16.8833 20.5104
L_Hand  -0.654334 5.59035 -6.51258
L_Thigh  1.73677 0.37242 17.4567
L_Calf  3.8525 -1.52747 13.5321
L_Foot  -1.0143 -4.49478 0.677867
L_Toe0  0.502952 0.0344633 -6.13805
R_Thigh  3.21665 -4.63624 1.93447
R_Calf  16.2492 -2.82878 -8.80664
R_Foot  -2.33702 -0.566773 16.9213
R_Toe0  2.40252 -0.61381 -3.60295
226
root  -5.94009 28.6224 38.6817 -109.746 -11.8022 68.8918
Spine  -2.19095 3.18947 6.3922
Spine1  -2.91017 -13.9115 0.356054
Neck  3.97569e-016 0 -2.38542e-015
Head  21.3506 -6.6692 -12.2139
R_Clavicle  0.409902 -21.7317 -0.609687
R_UpperArm  18.52 -0.321171 42.8482
R_Forearm  42.3628 -5.19064 4.30114
R_Hand  -0.881171 6.65706 -17.7002
L_Clavicle  -0.415735 14.7454 0.0124968
L_UpperArm  -19.8392 -12.5833 6.21959
L_Forearm  -0.987933 9.12255 10.6776
L_Hand  -0.636897 4.80763 -6.83236
L_Thigh  14.8547 7.27602 17.6167
L_Calf  4.37949 1.28447 -9.60369
L_Foot  0.838489 -1.2886 5.77473
L_Toe0  0.502785 0.0344646 -6.1382
R_Thigh  6.4937 -3.63635 2.3668
R_Calf  17.3286 -2.36858 -7.30652
R_Foot  -4.86629 -3.37687 24.6752
R_Toe0  3.87417 -0.589208 -13.3708
227
root  -6.12311 28.5829 39.0749 -109.6 -11.0423 70.132
Spine  -4.22395 0.561441 6.50891
Spine1  -4.09856 -11.7114 -2.45967
Neck  3.97569e-016 0 -2.38542e-015
Head  24.4021 -1.79239 -12.7052
R_Clavicle  0.413372 -21.7026 0.299477
R_UpperArm  17.7307 -6.10765 51.4621
R_Forearm  36.4951 11.8669 -10.081
R_Hand  -0.422179 5.91201 -13.3909
L_Clavicle  -0.374886 11.8669 1.14283
L_UpperArm  -20.651 -16.665 3.39065
L_Forearm  -1.08917 2.33381 2.68664
L_Hand  -0.581292 5.33921 -5.90513
L_Thigh  23.6462 12.6283 14.6447
L_Calf  1.64188 4.11049 -31.8094
L_Foot  4.33428 4.58579 12.8969
L_Toe0  0.502797 0.0344645 -6.13819
R_Thigh  7.82863 -2.65633 3.08788
R_Calf  18.2894 -2.16523 -6.6165
R_Foot  -5.86308 -4.80004 25.8211
R_Toe0  3.25314 -0.436876 -14.6907
228
root  -6.12575 29.2353 39.495 -106.448 -10.2276 70.8343
Spine  -8.1485 -4.49237 6.10303
Spine1  -6.71206 -6.3797 -5.7059
Neck  3.97569e-016 0 -2.38542e-015
Head  27.1451 2.62874 -8.57046
R_Clavicle  0.386914 -19.6283 0.657705
R_UpperArm  13.2193 -10.0416 56.0323
R_Forearm  25.7696 24.39 -22.1554
R_Hand  -0.0494325 5.06691 -9.26671
L_Clavicle  -0.371593 8.86787 1.94301
L_UpperArm  -19.8712 -18.0123 2.243
L_Forearm  -2.25354 -1.42151 -1.65432
L_Hand  -0.614496 5.81124 -5.97652
L_Thigh  27.6803 15.13 9.88156
L_Calf  -4.93962 5.92199 -49.3724
L_Foot  6.14599 6.96068 16.2243
L_Toe0  0.502953 0.0344633 -6.13805
R_Thigh  9.08927 -2.4726 2.49978
R_Calf  17.6007 -1.08495 -3.23558
R_Foot  -5.32927 -5.53964 21.0277
R_Toe0  3.90647 -0.565645 -13.5946
229
root  -5.75543 30.5689 40.0191 -102.605 -9.11058 72.215
Spine  -11.8461 -9.74392 5.77589
Spine1  -9.52518 -1.08264 -8.458
Neck  3.97569e-016 0 -2.38542e-015
Head  27.7421 7.39302 -2.08297
R_Clavicle  0.346799 -17.0573 0.563693
R_UpperArm  9.1556 -11.973 55.8225
R_Forearm  17.4199 30.688 -29.5644
R_Hand  0.0998145 4.63514 -7.35661
L_Clavicle  -0.335199 6.68616 1.80042
L_UpperArm  -16.2162 -17.4598 0.875995
L_Forearm  -2.89134 -1.88752 -2.19303
L_Hand  -0.602693 5.47995 -6.06265
L_Thigh  25.2706 15.2772 4.26429
L_Calf  -7.04519 6.82501 -60.9942
L_Foot  6.55333 7.28505 17.16
L_Toe0  0.503218 0.0344612 -6.13781
R_Thigh  12.6388 -1.98909 0.468109
R_Calf  15.0987 1.36545 4.34775
R_Foot  -4.48658 -8.35997 10.849
R_Toe0  3.23365 -0.657385 -7.04599
230
root  -5.17729 32.2434 40.6672 -101.207 -7.09699 75.3741
Spine  -13.2428 -12.8735 4.19269
Spine1  -10.7415 2.22896 -10.4324
Neck  3.97569e-016 0 -2.38542e-015
Head  26.8647 10.7885 4.72909
R_Clavicle  0.30611 -15.1056 0.373243
R_UpperArm  6.72015 -11.9685 52.1928
R_Forearm  12.7925 32.9141 -32.55
R_Hand  0.189708 5.00341 -6.92916
L_Clavicle  -0.246028 5.29031 1.04766
L_UpperArm  -11.6185 -15.4267 -1.40724
L_Forearm  -2.88578 -0.252736 -0.303108
L_Hand  -0.42519 6.17002 -3.87346
L_Thigh  16.5995 13.7902 -1.04071
L_Calf  -6.00823 7.0977 -65.4756
L_Foot  6.64093 7.99954 16.5017
L_Toe0  0.503555 0.0344586 -6.13752
R_Thigh  16.5062 0.070954 -0.800617
R_Calf  8.04212 4.16886 13.1662
R_Foot  -2.12252 -11.2534 -5.43673
R_Toe0  -1.8422 0.585322 3.27986
231
root  -4.6137 33.8045 41.3926 -101.789 -4.26638 79.3615
Spine  -12.7628 -14.6232 0.822927
Spine1  -10.605 4.84749 -11.0628
Neck  3.97569e-016 0 -2.38542e-015
Head  26.1526 10.1753 10.2737
R_Clavicle  0.252753 -13.6304 -0.00826055
R_UpperArm  5.87653 -10.1682 46.4676
R_Forearm  9.73969 33.1889 -32.9336
R_Hand  0.194137 5.4441 -7.38365
L_Clavicle  -0.151549 4.52529 0.261394
L_UpperArm  -8.33597 -12.8075 -3.92489
L_Forearm  -3.3038 1.81341 2.0846
L_Hand  -0.0480381 8.20884 -0.19491
L_Thigh  6.86479 10.9509 -3.38102
L_Calf  -4.14963 6.94527 -62.9602
L_Foot  5.65668 7.52192 13.7369
L_Toe0  0.503931 0.0344556 -6.13718
R_Thigh  17.4096 2.7216 0.409956
R_Calf  -2.43898 5.37579 17.0709
R_Foot  1.17587 -7.19174 -18.6604
R_Toe0  -8.77106 2.17679 -4.27485
232
root  -4.13014 34.9789 42.0871 -101.693 -2.17629 83.075
Spine  -12.1314 -15.6711 -1.66222
Spine1  -10.4975 7.45447 -10.6729
Neck  3.97569e-016 0 -2.38542e-015
Head  25.2334 10.0292 12.9201
R_Clavicle  0.156218 -12.1018 -0.738269
R_UpperArm  6.54153 -7.62287 39.3621
R_Forearm  8.25276 32.7146 -32.2675
R_Hand  0.0444365 5.93436 -9.24172
L_Clavicle  -0.0858674 4.41924 -0.355581
L_UpperArm  -5.53197 -10.9116 -6.5718
L_Forearm  -3.49494 3.36221 3.87928
L_Hand  0.173997 8.79828 1.59995
L_Thigh  0.804217 8.00129 -3.40768
L_Calf  -0.845935 6.44692 -55.7675
L_Foot  3.94231 5.56869 9.99381
L_Toe0  0.50431 0.0344526 -6.13684
R_Thigh  15.5295 4.30931 2.79044
R_Calf  -9.1097 4.26882 13.451
R_Foot  2.37854 -0.150515 -21.2667
R_Toe0  -3.44154 -0.326575 -16.5216
233
root  -3.71386 35.6878 42.7792 -99.9058 -2.16674 86.9156
Spine  -12.037 -14.8898 -0.67341
Spine1  -10.8276 8.98349 -10.7486
Neck  3.97569e-016 0 -2.38542e-015
Head  23.4301 12.4622 13.0069
R_Clavicle  0.0311706 -10.2879 -1.46447
R_UpperArm  8.29547 -5.34254 31.6546
R_Forearm  8.16821 32.18 -31.5312
R_Hand  -0.23462 6.8771 -12.3585
L_Clavicle  -0.0296054 4.64117 -0.983999
L_UpperArm  -1.62693 -9.97853 -9.75581
L_Forearm  -2.44288 4.60081 5.32085
L_Hand  -0.000137297 7.21413 0.234368
L_Thigh  -0.611042 5.87167 -4.30976
L_Calf  3.88361 5.57912 -45.6552
L_Foot  2.37579 4.07266 5.71287
L_Toe0  0.504657 0.0344499 -6.13654
R_Thigh  14.1765 4.76235 4.38968
R_Calf  -8.31465 0.904766 2.84995
R_Foot  2.04067 2.64002 -14.7969
R_Toe0  -1.61296 -0.284362 -17.4803
234
root  -3.31089 35.9761 43.5728 -97.6189 -3.07492 91.3982
Spine  -11.7336 -12.6066 2.19425
Spine1  -11.0314 10.0616 -11.7163
Neck  3.97569e-016 0 -2.38542e-015
Head  21.0112 14.6599 12.6133
R_Clavicle  -0.0521238 -8.25103 -1.61221
R_UpperArm  10.4414 -2.87827 23.7409
R_Forearm  7.62356 31.6183 -30.7732
R_Hand  -0.534384 7.82677 -15.2307
L_Clavicle  0.0421945 4.84361 -1.78502
L_UpperArm  2.81867 -9.25583 -13.6056
L_Forearm  -2.44037 6.38512 7.41414
L_Hand  -0.205296 6.77533 -1.74119
L_Thigh  1.02576 5.12403 -6.29211
L_Calf  7.03147 4.34591 -33.8467
L_Foot  1.50094 4.12704 2.04329
L_Toe0  0.504936 0.0344478 -6.1363
R_Thigh  13.6381 5.12236 5.60841
R_Calf  -4.69333 -3.54321 -11.0069
R_Foot  1.4869 2.60304 -8.24098
R_Toe0  -1.78853 -0.272788 -17.3235
235
root  -2.86296 36.0215 44.5036 -95.6446 -2.86005 96.3167
Spine  -10.8593 -11.0052 4.32126
Spine1  -10.8628 12.9113 -13.1065
Neck  3.97569e-016 0 -2.38542e-015
Head  18.6062 16.1664 12.3335
R_Clavicle  -0.0568991 -6.13387 -1.16851
R_UpperArm  12.6038 0.300612 15.6635
R_Forearm  5.71934 30.4371 -29.2292
R_Hand  -0.670025 8.24198 -16.4238
L_Clavicle  0.108097 4.92794 -2.49341
L_UpperArm  6.42971 -8.07695 -18.0183
L_Forearm  -6.03535 9.28548 10.8748
L_Hand  -0.258709 9.82773 -1.63205
L_Thigh  2.77838 6.20862 -6.77679
L_Calf  6.54312 2.8068 -21.1457
L_Foot  0.595998 4.20195 -1.89001
L_Toe0  0.505112 0.0344464 -6.13614
R_Thigh  12.2738 5.9347 7.81173
R_Calf  -4.44282 -7.74975 -24.8574
R_Foot  1.27621 3.33205 -3.68013
R_Toe0  -1.78853 -0.272788 -17.3235
